# xmcd
#
# Track frame offsets:
#	150
#	17953
#	31403
#	52100
#	70289
#	90320
#	109645
#	129905
#	145985
#	165426
#
# Disc length: 2405 seconds
#
# Revision: 1
# Processed by: cddbd v1.5.2PL0 Copyright (c) Steve Scherf et al.
# Submitted via: audiograbber 1.83.01
#
DISCID=8009630a
DTITLE=Romi Mayes - Achin in Yer Bones
DYEAR=2009
DGENRE=Blues
TTITLE0=Achin In Yer Bones
TTITLE1=Something goin on
TTITLE2=Tire Marks
TTITLE3=Slow Down
TTITLE4=I Won't Cry
TTITLE5=If the Lord don't Love you
TTITLE6=Givin is Gone
TTITLE7=Mercy on Me
TTITLE8=Just like the rest
TTITLE9=Hard Road
EXTD=
EXTT0=
EXTT1=
EXTT2=
EXTT3=
EXTT4=
EXTT5=
EXTT6=
EXTT7=
EXTT8=
EXTT9=
PLAYORDER=
